# Blender v2.78 (sub 0) OBJ File: ''
# www.blender.org
mtllib stone.mtl
o stone2_cle
v -5.676887 1.879842 6.806332
v -6.828033 2.069070 8.498857
v -8.504226 1.899425 8.417003
v -5.242042 0.983026 7.507738
v -8.832818 1.337992 8.556787
v -9.145350 0.055832 6.637316
v -5.740246 1.923598 7.155303
v -5.532543 1.681122 6.855398
v -5.341276 1.012496 7.092957
v -5.522407 1.676675 7.313243
v -6.344999 1.729378 8.667611
v -6.484477 2.059810 8.254600
v -8.700815 1.848944 8.262859
v -8.836164 1.484180 8.510385
v -9.157177 1.429660 6.150646
v -5.597496 1.806627 7.327077
v -6.301599 1.963036 8.344337
v -5.578949 1.748768 6.775947
v -8.872519 1.596982 8.345284
v -9.223392 1.463038 6.396919
v -9.236783 0.096404 6.957318
v -8.841143 0.055584 8.066567
v -5.541698 0.060762 7.525888
v -5.228584 0.591637 7.974241
v -6.079582 0.943186 8.976334
v -7.751801 0.523177 9.096296
v -6.249257 0.744671 9.056248
v -8.967648 0.878047 8.284290
v -8.931213 0.167465 8.042759
v -9.236800 0.295141 7.412580
v -9.289355 0.255498 7.169850
v -9.284889 1.271498 6.742990
v -9.270549 1.365479 6.460541
v -9.274261 1.216043 6.306510
v -9.155139 0.392738 6.316453
v -9.173420 0.161411 6.560440
v -9.278898 0.172588 7.010127
v -8.381763 0.041549 5.760671
v -8.619343 0.449329 5.753626
v -6.216310 0.610760 5.429201
v -6.041280 0.303998 5.673517
v -6.165094 0.034067 5.597371
v -6.650292 0.055019 5.446547
v -6.175705 1.638026 5.828705
v -6.296516 1.096136 5.364690
v -6.190659 1.435284 5.613438
v -6.673489 1.554357 5.633045
v -6.922143 1.371951 5.423018
v -8.373398 1.277958 5.690794
v -8.564513 1.420484 5.812736
v -8.266479 0.002791 8.346025
v -7.869798 0.086424 8.644691
v -7.252976 0.027597 8.411654
v -7.151750 -0.002996 8.296091
v -5.937911 0.031110 7.913017
v -6.147620 0.166229 8.289641
v -5.522407 1.676675 7.313243
v -5.532543 1.681122 6.855398
v -5.522407 1.676675 7.313243
v -5.522407 1.676675 7.313243
v -5.597496 1.806627 7.327077
v -5.597496 1.806627 7.327077
v -6.301599 1.963036 8.344337
v -6.344999 1.729378 8.667611
v -5.597496 1.806627 7.327077
v -6.344999 1.729378 8.667611
v -6.344999 1.729378 8.667611
v -6.344999 1.729378 8.667611
v -6.828033 2.069070 8.498857
v -8.504226 1.899425 8.417003
v -8.504226 1.899425 8.417003
v -8.836164 1.484180 8.510385
v -8.832818 1.337992 8.556787
v -6.344999 1.729378 8.667611
v -8.504226 1.899425 8.417003
v -8.832818 1.337992 8.556787
v -8.832818 1.337992 8.556787
v -7.751801 0.523177 9.096296
v -6.344999 1.729378 8.667611
v -8.832818 1.337992 8.556787
v -6.079582 0.943186 8.976334
v -6.344999 1.729378 8.667611
v -8.967648 0.878047 8.284290
v -8.931213 0.167465 8.042759
v -8.967648 0.878047 8.284290
v -8.832818 1.337992 8.556787
v -8.832818 1.337992 8.556787
v -8.836164 1.484180 8.510385
v -8.872519 1.596982 8.345284
v -8.832818 1.337992 8.556787
v -8.872519 1.596982 8.345284
v -8.872519 1.596982 8.345284
v -9.270549 1.365479 6.460541
v -9.270549 1.365479 6.460541
v -9.284889 1.271498 6.742990
v -9.270549 1.365479 6.460541
v -9.223392 1.463038 6.396919
v -9.223392 1.463038 6.396919
v -9.236783 0.096404 6.957318
v -9.236783 0.096404 6.957318
v -9.236800 0.295141 7.412580
v -9.236783 0.096404 6.957318
v -9.236800 0.295141 7.412580
v -9.289355 0.255498 7.169850
v -9.278898 0.172588 7.010127
v -9.236783 0.096404 6.957318
v -9.289355 0.255498 7.169850
v -9.145350 0.055832 6.637316
v -9.173420 0.161411 6.560440
v -9.155139 0.392738 6.316453
v -9.145350 0.055832 6.637316
v -9.155139 0.392738 6.316453
v -9.145350 0.055832 6.637316
v -6.190659 1.435284 5.613438
v -5.578949 1.748768 6.775947
v -5.578949 1.748768 6.775947
v -5.532543 1.681122 6.855398
v -5.578949 1.748768 6.775947
v -6.041280 0.303998 5.673517
v -5.578949 1.748768 6.775947
v -6.041280 0.303998 5.673517
v -6.216310 0.610760 5.429201
v -6.041280 0.303998 5.673517
v -6.165094 0.034067 5.597371
v -6.041280 0.303998 5.673517
v -6.165094 0.034067 5.597371
v -6.296516 1.096136 5.364690
v -6.296516 1.096136 5.364690
v -6.296516 1.096136 5.364690
v -8.373398 1.277958 5.690794
v -6.296516 1.096136 5.364690
v -8.373398 1.277958 5.690794
v -6.922143 1.371951 5.423018
v -6.296516 1.096136 5.364690
v -8.373398 1.277958 5.690794
v -9.155139 0.392738 6.316453
v -9.274261 1.216043 6.306510
v -9.274261 1.216043 6.306510
v -9.157177 1.429660 6.150646
v -8.564513 1.420484 5.812736
v -9.274261 1.216043 6.306510
v -8.564513 1.420484 5.812736
v -8.373398 1.277958 5.690794
v -8.564513 1.420484 5.812736
v -9.157177 1.429660 6.150646
v -9.157177 1.429660 6.150646
v -9.157177 1.429660 6.150646
v -9.157177 1.429660 6.150646
v -9.157177 1.429660 6.150646
v -9.236783 0.096404 6.957318
v -9.236783 0.096404 6.957318
v -9.145350 0.055832 6.637316
v -8.381763 0.041549 5.760671
v -8.381763 0.041549 5.760671
v -6.650292 0.055019 5.446547
v -6.165094 0.034067 5.597371
v -6.165094 0.034067 5.597371
v -5.541698 0.060762 7.525888
v -8.381763 0.041549 5.760671
v -6.165094 0.034067 5.597371
v -9.236783 0.096404 6.957318
v -8.381763 0.041549 5.760671
v -9.236783 0.096404 6.957318
v -5.541698 0.060762 7.525888
v -5.228584 0.591637 7.974241
v -6.079582 0.943186 8.976334
v -6.079582 0.943186 8.976334
v -6.249257 0.744671 9.056248
v -5.541698 0.060762 7.525888
v -6.079582 0.943186 8.976334
v -5.541698 0.060762 7.525888
v -6.249257 0.744671 9.056248
v -6.249257 0.744671 9.056248
vt 0.7509 0.4983
vt 0.7880 0.6770
vt 0.7525 0.7996
vt 0.6346 0.7580
vt 0.9098 0.5637
vt 0.8960 0.4685
vt 0.9287 0.4286
vt 0.9444 0.4384
vt 0.9411 0.5601
vt 0.9310 0.5781
vt 0.5616 0.1510
vt 0.5817 0.5214
vt 0.4730 0.4691
vt 0.4399 0.1111
vt 0.5616 0.1510
vt 0.7483 0.0705
vt 0.7628 0.1468
vt 0.7200 0.1654
vt 0.6372 0.0979
vt 0.1770 0.1595
vt 0.1305 0.1475
vt 0.1375 0.1086
vt 0.2261 0.1174
vt 0.7817 0.8318
vt 0.7736 0.8978
vt 0.5860 0.1585
vt 0.6573 0.0895
vt 0.7048 0.1508
vt 0.7386 0.5640
vt 0.6835 0.6977
vt 0.5626 0.7247
vt 0.5164 0.6963
vt 0.7532 0.2200
vt 0.6545 0.1391
vt 0.6163 0.0005
vt 0.8644 0.1026
vt 0.9068 0.1944
vt 0.9123 0.2897
vt 0.8925 0.2888
vt 0.5616 0.1510
vt 0.5714 0.0849
vt 0.5714 0.0849
vt 0.8532 0.0629
vt 0.9295 0.2033
vt 0.5714 0.0849
vt 0.9295 0.2033
vt 0.9295 0.2033
vt 0.9761 0.6282
vt 0.6889 0.7538
vt 0.2517 0.2033
vt 0.3628 0.0024
vt 0.7739 0.0144
vt 0.7739 0.0144
vt 0.8625 0.2147
vt 0.8644 0.2910
vt 0.2517 0.2033
vt 0.7739 0.0144
vt 0.8644 0.2910
vt 0.8644 0.2910
vt 0.6163 0.7807
vt 0.2468 0.7264
vt 0.2517 0.2033
vt 0.8644 0.2910
vt 0.2018 0.6282
vt 0.2517 0.2033
vt 0.1944 0.4914
vt 0.4503 0.6985
vt 0.2897 0.8250
vt 0.1944 0.4914
vt 0.1026 0.2910
vt 0.1026 0.2910
vt 0.1086 0.2147
vt 0.1475 0.1440
vt 0.1026 0.2910
vt 0.1475 0.1440
vt 0.1475 0.1440
vt 0.0384 0.6703
vt 0.0252 0.6573
vt 0.0252 0.6573
vt 0.0205 0.5860
vt 0.0252 0.6573
vt 0.6703 0.0378
vt 0.7377 0.0368
vt 0.6703 0.0378
vt 0.6678 0.7574
vt 0.5802 0.7598
vt 0.9903 0.5802
vt 0.9903 0.5802
vt 0.9854 0.4503
vt 0.9903 0.5802
vt 0.9854 0.4503
vt 0.9995 0.5164
vt 0.9989 0.5626
vt 0.9903 0.5802
vt 0.9995 0.5164
vt 0.0305 0.7574
vt 0.0256 0.6977
vt 0.0340 0.5640
vt 0.0305 0.7574
vt 0.0340 0.5640
vt 0.1642 0.5110
vt 0.2140 0.7228
vt 0.0305 0.7574
vt 0.0218 0.2495
vt 0.1022 0.1059
vt 0.4219 0.0693
vt 0.4219 0.0693
vt 0.4399 0.1111
vt 0.4219 0.0693
vt 0.0682 0.6770
vt 0.4219 0.0693
vt 0.0682 0.6770
vt 0.0175 0.4983
vt 0.0682 0.6770
vt 0.5482 0.9679
vt 0.0370 0.7996
vt 0.0682 0.6770
vt 0.0370 0.7996
vt 0.5941 0.9470
vt 0.2400 0.8714
vt 0.1966 0.8316
vt 0.6586 0.8846
vt 0.7408 0.9782
vt 0.7408 0.9782
vt 0.7408 0.2495
vt 0.2400 0.1050
vt 0.7408 0.2495
vt 0.2400 0.1050
vt 0.5941 0.0933
vt 0.7408 0.2495
vt 0.2400 0.1050
vt 0.0340 0.5640
vt 0.0211 0.1508
vt 0.0211 0.1508
vt 0.0534 0.0368
vt 0.1966 0.0369
vt 0.0211 0.1508
vt 0.1966 0.0369
vt 0.2400 0.1050
vt 0.1966 0.0369
vt 0.0534 0.7377
vt 0.0534 0.7377
vt 0.0534 0.7377
vt 0.0534 0.7377
vt 0.0534 0.7377
vt 0.4824 0.2400
vt 0.1874 0.3476
vt 0.2350 0.2402
vt 0.5062 0.2073
vt 0.9903 0.5802
vt 0.9903 0.5802
vt 0.9695 0.6678
vt 0.7860 0.9063
vt 0.7860 0.9063
vt 0.3654 0.9995
vt 0.2475 0.9630
vt 0.2475 0.9630
vt 0.0913 0.4518
vt 0.7860 0.9063
vt 0.2475 0.9630
vt 0.9903 0.5802
vt 0.7860 0.9063
vt 0.9903 0.5802
vt 0.0913 0.4518
vt 0.0039 0.3111
vt 0.2018 0.0239
vt 0.2018 0.0239
vt 0.2468 0.0103
vt 0.0913 0.4518
vt 0.2018 0.0239
vt 0.0913 0.4518
vt 0.2468 0.0103
vt 0.2468 0.0103
vn 0.7167 -0.1358 -0.6840
vn 0.2780 -0.2461 -0.9285
vn 0.6229 0.7822 0.0150
vn 0.8651 0.5014 -0.0143
vn 0.8133 0.5803 -0.0424
vn 0.8045 0.5930 0.0350
vn 0.9267 0.3187 -0.1991
vn 0.9630 0.2688 -0.0187
vn 0.1302 0.7952 0.5922
vn 0.3754 0.7814 0.4984
vn -0.6061 0.5882 0.5354
vn -0.5857 0.5926 0.5530
vn 0.4608 0.8635 0.2050
vn 0.4071 0.9021 0.1431
vn 0.6473 0.5943 -0.4773
vn 0.7134 0.4847 -0.5061
vn -0.9979 0.0573 -0.0316
vn -0.9678 -0.1425 -0.2076
vn -0.9951 -0.0980 -0.0118
vn -0.9721 -0.0604 -0.2265
vn -0.9983 -0.0189 -0.0555
vn -0.3916 -0.6081 0.6905
vn -0.5883 -0.2775 0.7595
vn -0.5856 -0.4202 0.6932
vn -0.4569 -0.3072 0.8348
vn -0.4436 -0.1698 0.8800
vn 0.8213 0.4353 0.3687
vn 0.7541 0.4800 0.4482
vn 0.7755 0.4351 0.4575
vn 0.7749 0.4398 0.4539
vn 0.7268 0.5364 0.4290
vn -0.0809 0.3488 0.9337
vn -0.1067 0.2986 0.9484
vn -0.0879 0.2888 0.9533
vn -0.0512 0.5032 0.8626
vn -0.0976 0.3571 0.9289
vn 0.0077 0.3677 0.9299
vn -0.8988 -0.1817 0.3990
vn -0.9676 0.1766 0.1807
vn -0.9659 0.0580 0.2523
vn -0.9597 0.0743 0.2711
vn -0.9678 0.1081 0.2271
vn -0.9765 0.0871 0.1972
vn -0.8545 0.5014 0.1356
vn -0.8070 0.5823 0.0989
vn -0.8605 0.4948 0.1210
vn -0.9128 0.2923 -0.2851
vn -0.9254 0.2829 -0.2521
vn -0.8975 -0.3894 -0.2071
vn -0.9098 -0.3613 -0.2044
vn -0.7788 -0.5723 0.2567
vn -0.7703 -0.5845 0.2551
vn -0.7564 -0.5995 0.2617
vn -0.5602 -0.5798 -0.5916
vn -0.5602 -0.5797 -0.5916
vn -0.6903 -0.4124 -0.5945
vn 0.8730 0.0803 -0.4810
vn 0.8941 0.1007 -0.4365
vn 0.8776 0.0798 -0.4726
vn 0.8700 0.0914 -0.4846
vn 0.8512 0.0715 -0.5200
vn 0.9358 -0.2564 -0.2421
vn 0.9117 -0.3130 -0.2661
vn 0.9025 -0.3208 -0.2873
vn 0.9006 -0.3350 -0.2769
vn -0.1892 0.4795 -0.8569
vn -0.1119 0.8120 -0.5728
vn -0.6681 0.5643 -0.4850
vn 0.1982 0.6116 -0.7659
vn 0.1062 -0.1137 -0.9878
vn -0.1763 -0.1196 -0.9770
vn -0.1594 -0.0275 -0.9868
vn -0.1571 -0.0242 -0.9873
vn -0.1677 -0.1751 -0.9702
vn -0.7141 -0.1117 -0.6911
vn -0.4702 -0.3373 -0.8155
vn -0.5850 0.0821 -0.8069
vn -0.4928 0.0806 -0.8664
vn -0.1270 0.9778 -0.1667
vn -0.0886 0.9745 -0.2062
vn -0.0932 0.9802 -0.1744
vn -0.1147 0.9734 -0.1983
vn -0.1716 0.9732 -0.1532
vn -0.0921 0.9792 -0.1806
vn -0.0879 0.9798 -0.1796
vn -0.0890 0.9774 -0.1916
vn -0.0863 0.9802 -0.1780
vn 0.1542 -0.8996 0.4086
vn 0.1562 -0.9124 0.3784
vn 0.0067 -0.9652 0.2614
vn -0.0891 -0.9960 -0.0049
vn 0.1826 -0.9675 0.1749
vn -0.0109 -0.9946 -0.1030
vn 0.0670 -0.9977 -0.0078
vn -0.0034 -1.0000 -0.0009
vn -0.0274 -0.9993 0.0262
vn -0.0003 -0.9978 -0.0670
vn -0.0106 -0.9925 -0.1220
vn 0.3863 -0.7174 0.5797
vn 0.7595 -0.4668 0.4530
vn 0.6144 -0.5520 0.5637
vn 0.5740 -0.6153 0.5403
vn 0.1794 -0.7302 0.6593
vn 0.1286 -0.7565 0.6413
vn 0.1645 -0.7768 0.6079
usemtl None
s off
f 40/1/1 41/2/1 42/3/1
f 42/3/2 43/4/2 40/1/2
f 1/5/3 7/6/3 16/7/3
f 16/7/4 10/8/4 8/9/4
f 1/5/5 16/7/5 8/9/5
f 18/10/6 1/5/6 8/9/6
f 57/11/7 4/12/7 9/13/7
f 9/13/8 58/14/8 59/15/8
f 11/16/9 17/17/9 12/18/9
f 12/18/10 2/19/10 11/16/10
f 13/20/11 19/21/11 14/22/11
f 14/22/12 3/23/12 13/20/12
f 16/7/13 7/6/13 12/18/13
f 12/18/14 17/17/14 16/7/14
f 44/24/15 1/5/15 18/10/15
f 18/10/16 46/25/16 44/24/16
f 32/26/17 33/27/17 34/28/17
f 34/28/18 35/29/18 36/30/18
f 32/26/19 34/28/19 36/30/19
f 32/26/20 36/30/20 37/31/20
f 31/32/21 32/26/21 37/31/21
f 51/33/22 52/34/22 26/35/22
f 26/35/23 5/36/23 28/37/23
f 51/33/24 26/35/24 28/37/24
f 51/33/25 28/37/25 29/38/25
f 22/39/26 51/33/26 29/38/26
f 4/12/27 60/40/27 61/41/27
f 62/42/28 63/43/28 64/44/28
f 4/12/29 65/45/29 66/46/29
f 4/12/30 67/47/30 25/48/30
f 24/49/31 4/12/31 25/48/31
f 68/50/32 69/51/32 70/52/32
f 71/53/33 72/54/33 73/55/33
f 74/56/34 75/57/34 76/58/34
f 77/59/35 78/60/35 27/61/35
f 79/62/36 80/63/36 27/61/36
f 81/64/37 82/65/37 27/61/37
f 83/66/38 30/67/38 84/68/38
f 30/67/39 85/69/39 86/70/39
f 87/71/40 88/72/40 89/73/40
f 30/67/41 90/74/41 91/75/41
f 30/67/42 92/76/42 32/26/42
f 31/32/43 30/67/43 32/26/43
f 13/20/44 20/77/44 93/78/44
f 19/21/45 13/20/45 94/79/45
f 95/80/46 19/21/46 96/81/46
f 97/82/47 15/83/47 34/28/47
f 34/28/48 33/27/48 98/84/48
f 36/30/49 6/85/49 21/86/49
f 21/86/50 37/31/50 36/30/50
f 99/87/51 22/39/51 29/38/51
f 100/88/52 29/38/52 101/89/52
f 102/90/53 103/91/53 104/92/53
f 105/93/53 106/94/53 107/95/53
f 108/96/54 109/97/54 110/98/54
f 111/99/55 112/100/55 39/101/55
f 38/102/56 113/103/56 39/101/56
f 45/104/57 114/105/57 115/106/57
f 116/107/58 117/108/58 9/13/58
f 118/109/59 9/13/59 119/110/59
f 45/104/60 120/111/60 121/112/60
f 122/113/61 45/104/61 123/114/61
f 9/13/62 4/12/62 24/49/62
f 9/13/63 24/49/63 23/115/63
f 9/13/64 23/115/64 124/116/64
f 125/117/65 9/13/65 126/118/65
f 48/119/66 49/120/66 50/121/66
f 50/121/67 47/122/67 48/119/67
f 44/24/68 46/25/68 127/123/68
f 44/24/69 128/124/69 48/119/69
f 47/122/69 44/24/69 48/119/69
f 129/125/70 40/1/70 43/4/70
f 43/4/71 38/102/71 39/101/71
f 43/4/72 39/101/72 130/126/72
f 131/127/73 43/4/73 132/128/73
f 133/129/74 134/130/74 135/131/74
f 39/101/75 136/132/75 137/133/75
f 138/134/76 139/135/76 140/136/76
f 39/101/77 141/137/77 142/138/77
f 143/139/78 39/101/78 144/140/78
f 145/141/79 20/77/79 13/20/79
f 13/20/80 3/23/80 2/19/80
f 146/142/81 13/20/81 2/19/81
f 2/19/82 12/18/82 7/6/82
f 7/6/83 1/5/83 44/24/83
f 2/19/84 7/6/84 44/24/84
f 147/143/85 2/19/85 44/24/85
f 148/144/86 44/24/86 47/122/86
f 50/121/87 149/145/87 47/122/87
f 54/146/88 55/147/88 56/148/88
f 56/148/89 53/149/89 54/146/89
f 52/34/90 51/33/90 54/146/90
f 54/146/90 53/149/90 52/34/90
f 51/33/91 22/39/91 150/150/91
f 151/151/92 152/152/92 153/153/92
f 154/154/93 155/155/93 156/156/93
f 157/157/94 158/158/94 55/147/94
f 159/159/95 160/160/95 55/147/95
f 161/161/96 162/162/96 55/147/96
f 51/33/97 163/163/97 55/147/97
f 54/146/98 51/33/98 55/147/98
f 164/164/99 165/165/99 166/166/99
f 167/167/100 168/168/100 56/148/100
f 169/169/101 170/170/101 56/148/101
f 55/147/102 171/171/102 56/148/102
f 26/35/103 52/34/103 53/149/103
f 172/172/104 26/35/104 53/149/104
f 56/148/105 173/173/105 53/149/105
