# Blender v2.78 (sub 0) OBJ File: ''
# www.blender.org
mtllib selection_box.mtl
o Plane
v 0.054960 0.000000 -0.098696
v 0.675774 0.000000 -0.099212
v 0.054960 0.000000 -0.207695
v 0.613040 0.000000 -0.208258
v 0.072997 0.000000 -0.102825
v 0.657844 0.000000 -0.103381
v 0.594617 0.000000 -0.204681
v 0.073188 0.000000 -0.204071
v 0.055661 0.000000 -0.193303
v 0.055661 0.000000 -0.113088
v 0.663763 0.000000 -0.118123
v 0.625487 0.000000 -0.190688
v 0.065061 0.000000 -0.108349
v 0.064871 0.000000 -0.197529
v 0.656101 0.000000 -0.111779
v 0.616975 0.000000 -0.193111
vt 0.1389 0.9079
vt 0.1611 0.9216
vt 0.0000 0.9020
vt 0.0326 0.8722
vt 0.1328 0.0038
vt 0.0942 0.0187
vt 0.0343 0.0323
vt 0.0009 0.0031
vt 0.9623 0.0292
vt 0.9616 0.9712
vt 0.8847 0.9687
vt 0.9116 0.0165
vt 1.0000 0.0000
vt 0.8681 0.0015
vt 1.0000 1.0000
vt 0.8266 0.9812
vn 0.0000 1.0000 0.0000
usemtl Material.001
s off
f 16/1/1 12/2/1 4/3/1 7/4/1
f 9/5/1 14/6/1 8/7/1 3/8/1
f 14/6/1 16/1/1 7/4/1 8/7/1
f 5/9/1 6/10/1 15/11/1 13/12/1
f 1/13/1 5/9/1 13/12/1 10/14/1
f 10/14/1 13/12/1 14/6/1 9/5/1
f 6/10/1 2/15/1 11/16/1 15/11/1
f 15/11/1 11/16/1 12/2/1 16/1/1
